<?xml version="1.0" encoding="UTF-8" standalone="no"?>
<!-- Created with Inkscape (http://www.inkscape.org/) -->

<svg
   xmlns:dc="http://purl.org/dc/elements/1.1/"
   xmlns:cc="http://creativecommons.org/ns#"
   xmlns:rdf="http://www.w3.org/1999/02/22-rdf-syntax-ns#"
   xmlns:svg="http://www.w3.org/2000/svg"
   xmlns="http://www.w3.org/2000/svg"
   xmlns:sodipodi="http://sodipodi.sourceforge.net/DTD/sodipodi-0.dtd"
   xmlns:inkscape="http://www.inkscape.org/namespaces/inkscape"
   width="439.48706"
   height="239.07053"
   viewBox="0 0 116.28094 63.254078"
   version="1.1"
   id="svg8"
   sodipodi:docname="logo-word.svg"
   inkscape:version="0.92.1 r15371"
   inkscape:export-filename="/home/bookchin/Code/orc-brand/logo-word-purple.png"
   inkscape:export-xdpi="96"
   inkscape:export-ydpi="96">
  <defs
     id="defs2">
    <inkscape:perspective
       sodipodi:type="inkscape:persp3d"
       inkscape:vp_x="0 : 67.733334 : 1"
       inkscape:vp_y="0 : 1000 : 0"
       inkscape:vp_z="135.46665 : 67.733334 : 1"
       inkscape:persp3d-origin="67.733327 : 45.155557 : 1"
       id="perspective4607" />
  </defs>
  <sodipodi:namedview
     id="base"
     pagecolor="#ffffff"
     bordercolor="#666666"
     borderopacity="1.0"
     inkscape:pageopacity="0.0"
     inkscape:pageshadow="2"
     inkscape:zoom="2"
     inkscape:cx="172.41714"
     inkscape:cy="73.107983"
     inkscape:document-units="mm"
     inkscape:current-layer="layer1"
     showgrid="false"
     units="px"
     inkscape:window-width="1916"
     inkscape:window-height="1032"
     inkscape:window-x="0"
     inkscape:window-y="46"
     inkscape:window-maximized="0"
     showguides="true"
     inkscape:guide-bbox="true"
     fit-margin-top="24"
     fit-margin-left="24"
     fit-margin-right="24"
     fit-margin-bottom="24">
    <sodipodi:guide
       position="76.065422,127.246"
       orientation="1,0"
       id="guide4491"
       inkscape:locked="false" />
    <sodipodi:guide
       position="8.1853478,58.09469"
       orientation="0,1"
       id="guide4493"
       inkscape:locked="false" />
  </sodipodi:namedview>
  <metadata
     id="metadata5">
    <rdf:RDF>
      <cc:Work
         rdf:about="">
        <dc:format>image/svg+xml</dc:format>
        <dc:type
           rdf:resource="http://purl.org/dc/dcmitype/StillImage" />
        <dc:title></dc:title>
      </cc:Work>
    </rdf:RDF>
  </metadata>
  <g
     inkscape:groupmode="layer"
     id="layer2"
     inkscape:label="Layer 2"
     transform="translate(8.3465932,-62.584303)">
    <g
       aria-label="ONION ROUTED CLOUD"
       style="font-style:normal;font-weight:normal;font-size:10.48594856px;line-height:125%;font-family:sans-serif;letter-spacing:0px;word-spacing:0px;fill:#008000;fill-opacity:1;stroke:none;stroke-width:0.26214871px;stroke-linecap:butt;stroke-linejoin:miter;stroke-opacity:1"
       id="text5413" />
  </g>
  <g
     inkscape:label="Layer 1"
     inkscape:groupmode="layer"
     id="layer1"
     transform="translate(8.3465932,-224.11762)">
    <path
       inkscape:connector-curvature="0"
       style="font-style:normal;font-variant:normal;font-weight:normal;font-stretch:normal;font-size:medium;line-height:125%;font-family:COCOGOOSE;-inkscape-font-specification:COCOGOOSE;letter-spacing:0px;word-spacing:0px;fill:#800080;fill-opacity:1;stroke:none;stroke-width:0.79374999;stroke-linecap:butt;stroke-linejoin:miter;stroke-miterlimit:4;stroke-dasharray:none;stroke-opacity:1"
       d="m 90.19718,242.15757 c -1.751798,0 -3.437996,0.23128 -5.057574,0.69402 -1.603052,0.44621 -3.106613,1.08261 -4.511352,1.90893 -1.404739,0.80979 -2.685815,1.79336 -3.84266,2.9502 -0.816951,0.8288 -1.551829,1.72629 -2.207617,2.69079 0.428392,1.26305 0.646991,2.59224 0.646991,3.97547 0,1.19498 -0.16758,2.34674 -0.503846,3.44682 -2.65e-4,10e-4 -0.0019,10e-4 -0.0021,0.002 -0.316706,1.0725 -0.764871,2.08665 -1.345655,3.03702 l -0.0021,0.004 -0.0021,0.002 c -0.557623,0.89556 -1.222995,1.71669 -1.989027,2.46393 0.108905,0.97856 0.289259,1.93608 0.546735,2.87062 0.446215,1.60306 1.082609,3.10661 1.908929,4.51136 0.82632,1.38822 1.809367,2.661 2.949689,3.81785 1.156846,1.14032 2.437921,2.12389 3.84266,2.95021 1.404739,0.82632 2.9083,1.4622 4.511352,1.90841 1.619578,0.44621 3.305776,0.66972 5.057574,0.66972 1.983174,0 3.867005,-0.28145 5.651852,-0.84336 1.801386,-0.57842 3.478771,-1.38814 5.032249,-2.4293 0.28095,-0.16527 0.48739,-0.37171 0.6196,-0.6196 0.13219,-0.2479 0.10738,-0.55368 -0.0744,-0.91726 l -4.23902,-6.09834 c -0.198322,-0.2644 -0.396476,-0.4129 -0.594797,-0.44596 -0.198313,-0.0331 -0.446143,0.0414 -0.743622,0.22324 -0.809794,0.61148 -1.710582,1.09058 -2.702161,1.43764 -0.991586,0.33052 -2.032584,0.49557 -3.123324,0.49557 -1.355166,0 -2.603121,-0.2561 -3.743441,-0.76842 -1.140312,-0.51233 -2.123374,-1.20615 -2.949691,-2.08205 -0.826315,-0.89242 -1.470996,-1.92566 -1.933732,-3.09903 -0.462737,-1.1899 -0.694015,-2.46218 -0.694015,-3.81734 0,-1.35517 0.231278,-2.62796 0.694015,-3.81786 0.462736,-1.1899 1.107417,-2.2309 1.933732,-3.12332 0.826317,-0.89243 1.809379,-1.59505 2.949691,-2.10737 1.14032,-0.51231 2.388275,-0.76842 3.743441,-0.76842 1.09074,0 2.123459,0.16556 3.098517,0.49609 0.975056,0.33053 1.867564,0.80135 2.677359,1.41283 0.297479,0.18181 0.545308,0.25631 0.743622,0.22325 0.214847,-0.0496 0.413004,-0.21514 0.594796,-0.4961 l 4.18941,-5.94951 c 0.18181,-0.36358 0.20663,-0.67712 0.0744,-0.94154 -0.13221,-0.26442 -0.33865,-0.47965 -0.6196,-0.64492 -1.553477,-1.04117 -3.214306,-1.83433 -4.982638,-2.3797 -1.751796,-0.5619 -3.619069,-0.84284 -5.602243,-0.84284 z m -16.756599,10.1322 c -0.635895,1.20056 -1.141725,2.47479 -1.513605,3.82457 -0.442862,1.59103 -0.665366,3.25544 -0.668692,4.99298 0.274593,-0.34545 0.530355,-0.7034 0.763259,-1.07745 0.507945,-0.8322 0.900094,-1.71329 1.177708,-2.6541 v -0.004 l 0.0021,-0.004 c 0.290182,-0.94692 0.435631,-1.94013 0.435631,-2.99 0,-0.7194 -0.06731,-1.41381 -0.196368,-2.08773 z"
       id="path5727" />
    <path
       inkscape:connector-curvature="0"
       style="font-style:normal;font-variant:normal;font-weight:normal;font-stretch:normal;font-size:medium;line-height:125%;font-family:COCOGOOSE;-inkscape-font-specification:COCOGOOSE;letter-spacing:0px;word-spacing:0px;fill:#800080;fill-opacity:1;stroke:none;stroke-width:0.79374999;stroke-linecap:butt;stroke-linejoin:miter;stroke-miterlimit:4;stroke-dasharray:none;stroke-opacity:1"
       d="m 45.986959,242.42216 c -0.36358,0 -0.636246,0.10709 -0.818039,0.32194 -0.181787,0.19831 -0.272851,0.47099 -0.272851,0.81804 v 4.89944 l 6.256464,-4.45761 -0.267681,7.98608 v 0.004 c -0.126466,2.85538 -0.784548,4.80191 -1.800924,6.09368 -1.016376,1.29177 -2.383986,1.85546 -3.654041,1.98437 -0.17998,0.0183 -0.357894,0.0266 -0.533818,0.03 v 18.06659 c 0,0.36358 0.09934,0.63625 0.297656,0.81804 0.198321,0.16527 0.462706,0.24753 0.793234,0.24753 H 53.3493 c 0.760214,0 1.1405,-0.35493 1.1405,-1.06557 V 266.9885 h 4.015774 l 6.023922,11.32902 c 0.06611,0.28095 0.206317,0.50395 0.421164,0.66921 0.231365,0.16527 0.487997,0.24753 0.768945,0.24753 h 8.502838 c 0.297481,0 0.528756,-0.0657 0.694015,-0.19792 0.181793,-0.14874 0.272336,-0.3557 0.272336,-0.62012 0,-0.23137 -0.09054,-0.50403 -0.272336,-0.81803 -0.181787,-0.314 -0.330798,-0.58667 -0.446484,-0.81804 l -6.370669,-11.99824 c 0.892426,-0.51232 1.710425,-1.12336 2.454113,-1.83399 0.760212,-0.72717 1.413164,-1.52912 1.958536,-2.40502 0.545372,-0.89243 0.966533,-1.84237 1.264004,-2.85047 0.314003,-1.02465 0.470774,-2.09875 0.470774,-3.22255 0,-1.65264 -0.321824,-3.20637 -0.966349,-4.6607 -0.628007,-1.47085 -1.495676,-2.7514 -2.602941,-3.84214 -1.107274,-1.09074 -2.404896,-1.95013 -3.89227,-2.57814 -1.487379,-0.64453 -3.081983,-0.96686 -4.784204,-0.96686 z m 3.472138,4.73821 -4.563028,3.25096 v 8.10338 c 0.124582,-0.003 0.249542,-0.0101 0.373621,-0.0227 0.948634,-0.0963 1.829347,-0.44521 2.568318,-1.38441 0.738971,-0.9392 1.343816,-2.5402 1.460894,-5.18367 z m 5.030703,2.84737 h 3.420977 c 0.479269,0 0.916983,0.0165 1.313617,0.0496 0.41316,0.0165 0.851384,0.0413 1.31413,0.0744 0.561895,0.0826 1.074118,0.26424 1.536858,0.54519 0.462741,0.28095 0.859065,0.62812 1.189591,1.04128 0.330533,0.41316 0.586642,0.86743 0.768429,1.36322 0.181793,0.4958 0.272852,0.99147 0.272852,1.48725 0,0.52885 -0.08278,1.04934 -0.248047,1.56166 -0.165261,0.4958 -0.404813,0.95059 -0.71882,1.36375 -0.314,0.39663 -0.702045,0.73552 -1.164786,1.01647 -0.46274,0.2644 -0.983236,0.42944 -1.561663,0.49558 -0.280945,0.0331 -0.53757,0.0579 -0.768946,0.0744 -0.231364,0.0165 -0.495757,0.0248 -0.793231,0.0248 H 54.4898 Z"
       id="path5725" />
    <path
       inkscape:connector-curvature="0"
       style="fill:#800080;fill-rule:evenodd;stroke:none;stroke-width:0.79374999;stroke-linecap:butt;stroke-linejoin:miter;stroke-miterlimit:4;stroke-dasharray:none;stroke-opacity:1"
       d="m 12.128561,230.86472 c -2.8501018,-0.0321 -3.7628265,3.27076 -3.6168339,4.63331 0.1409552,1.31558 0.6522019,2.09697 0.7777303,2.2717 0.017933,0.025 0.027905,0.0372 0.027905,0.0372 0,0 -1.0202764,-0.26828 -1.8257284,-1.55701 0,0 1.7718963,7.62469 7.624858,5.6379 0,0 1.947529,-0.85491 4.010608,-2.3859 2.18291,-1.34116 3.399099,-4.78861 5.680789,2.2133 -3.380573,0.72593 -11.578666,3.60939 -16.6718499,12.79147 l -8.90333249,-8.46098 c 0,0 -4.43698461,17.99625 7.18509109,12.91756 0,0 -5.315863,15.3038 8.4842363,19.86803 13.800098,4.56423 22.552629,-1.02009 22.552629,-1.02009 0,0 5.530746,-1.66486 5.315955,-12.18943 0,0 0.09229,-3.52233 -1.664499,-7.35615 0,0 8.631224,4.59812 9.118306,-6.39961 l 0.214458,-6.37583 -11.342976,8.08116 c 0,0 -5.883319,-11.46879 -12.380639,-11.73727 0,0 1.772068,-10.25577 -4.080889,-9.12813 0,0 -2.239362,0.78295 -6.873482,4.34909 0,0 -4.026999,2.4166 -4.456576,-1.50326 0,0 0.05374,-2.68512 1.825729,-1.50379 0,0 0.590664,0.48326 0,1.77199 0,0 3.54395,-3.97312 -0.05374,-4.83227 -0.337284,-0.0806 -0.652908,-0.11945 -0.947745,-0.12299 z m 1.547192,30.10876 c 0,0 -1.443252,9.34044 0.30334,12.22613 0,0 -2.126344,1.21508 -4.7842035,-1.36684 -1.8225323,-6.53075 4.4808635,-10.85929 4.4808635,-10.85929 z m 21.693765,0.13384 c 0,0 6.302878,4.32855 4.480349,10.85929 -2.657867,2.58192 -4.784207,1.36735 -4.784207,1.36735 1.746594,-2.88567 0.303858,-12.22664 0.303858,-12.22664 z m -17.299201,6.77892 c 0,0 -0.825058,5.34077 0.173633,6.99078 0,0 -1.216007,0.69497 -2.735751,-0.78134 -1.04211,-3.73424 2.562118,-6.20944 2.562118,-6.20944 z m 13.138216,0.077 c 0,0 3.603709,2.4747 2.5616,6.20893 -1.519745,1.47632 -2.735233,0.78186 -2.735233,0.78186 0.998691,-1.65001 0.173633,-6.99079 0.173633,-6.99079 z"
       id="path4636" />
  </g>
</svg>
