<?xml version="1.0" encoding="UTF-8" standalone="no"?>
<!-- Created with Inkscape (http://www.inkscape.org/) -->

<svg
   xmlns:dc="http://purl.org/dc/elements/1.1/"
   xmlns:cc="http://creativecommons.org/ns#"
   xmlns:rdf="http://www.w3.org/1999/02/22-rdf-syntax-ns#"
   xmlns:svg="http://www.w3.org/2000/svg"
   xmlns="http://www.w3.org/2000/svg"
   xmlns:sodipodi="http://sodipodi.sourceforge.net/DTD/sodipodi-0.dtd"
   xmlns:inkscape="http://www.inkscape.org/namespaces/inkscape"
   width="512"
   height="512"
   viewBox="0 0 135.46666 135.46667"
   version="1.1"
   id="svg8"
   sodipodi:docname="logo-white.svg"
   inkscape:version="0.92.1 r15371"
   inkscape:export-filename="/home/bookchin/Code/orc-brand/logo.png"
   inkscape:export-xdpi="96"
   inkscape:export-ydpi="96">
  <defs
     id="defs2">
    <inkscape:perspective
       sodipodi:type="inkscape:persp3d"
       inkscape:vp_x="0 : 67.733335 : 1"
       inkscape:vp_y="0 : 1000 : 0"
       inkscape:vp_z="135.46666 : 67.733335 : 1"
       inkscape:persp3d-origin="67.73333 : 45.155557 : 1"
       id="perspective4607" />
  </defs>
  <sodipodi:namedview
     id="base"
     pagecolor="#ffffff"
     bordercolor="#666666"
     borderopacity="1.0"
     inkscape:pageopacity="0.0"
     inkscape:pageshadow="2"
     inkscape:zoom="0.76916056"
     inkscape:cx="-154.45313"
     inkscape:cy="36.188762"
     inkscape:document-units="mm"
     inkscape:current-layer="layer1"
     showgrid="false"
     units="px"
     inkscape:window-width="1916"
     inkscape:window-height="1032"
     inkscape:window-x="0"
     inkscape:window-y="46"
     inkscape:window-maximized="0"
     showguides="true"
     inkscape:guide-bbox="true">
    <sodipodi:guide
       position="67.718831,136.87428"
       orientation="1,0"
       id="guide4491"
       inkscape:locked="false" />
    <sodipodi:guide
       position="-0.16124518,67.722977"
       orientation="0,1"
       id="guide4493"
       inkscape:locked="false" />
  </sodipodi:namedview>
  <metadata
     id="metadata5">
    <rdf:RDF>
      <cc:Work
         rdf:about="">
        <dc:format>image/svg+xml</dc:format>
        <dc:type
           rdf:resource="http://purl.org/dc/dcmitype/StillImage" />
        <dc:title></dc:title>
      </cc:Work>
    </rdf:RDF>
  </metadata>
  <g
     inkscape:groupmode="layer"
     id="layer2"
     inkscape:label="Layer 2" />
  <g
     inkscape:label="Layer 1"
     inkscape:groupmode="layer"
     id="layer1"
     transform="translate(0,-161.53332)">
    <path
       inkscape:connector-curvature="0"
       style="fill:#ffffff;fill-rule:evenodd;stroke:none;stroke-width:1.99276876;stroke-linecap:butt;stroke-linejoin:miter;stroke-miterlimit:4;stroke-dasharray:none;stroke-opacity:1"
       d="m 36.817646,166.80994 c -7.155394,-0.0806 -9.446859,8.21149 -9.080332,11.63227 0.353878,3.30286 1.637401,5.2646 1.952549,5.70327 0.04501,0.0628 0.07005,0.0934 0.07005,0.0934 0,0 -2.561479,-0.67354 -4.583627,-3.90899 0,0 4.448478,19.14235 19.142777,14.15437 0,0 4.889417,-2.14632 10.068932,-5.98999 5.480359,-3.36708 8.533692,-12.02216 14.262043,5.55666 -8.487179,1.8225 -29.069108,9.06164 -41.855925,32.11394 L 4.4416265,204.92295 c 0,0 -11.139383,45.18093 18.0387085,32.4305 0,0 -13.3458716,38.42134 21.30031,49.88018 34.646179,11.45884 56.620065,-2.56101 56.620065,-2.56101 0,0 13.88534,-4.17976 13.3461,-30.60248 0,0 0.23172,-8.84307 -4.17885,-18.46817 0,0 21.66934,11.54393 22.8922,-16.0667 l 0.53841,-16.00699 -28.4774,20.28835 c 0,0 -14.770511,-28.79325 -31.082519,-29.46729 0,0 4.44891,-25.74788 -10.245375,-22.91686 0,0 -5.622086,1.96566 -17.256391,10.91872 0,0 -10.110085,6.06705 -11.188568,-3.77405 0,0 0.134919,-6.74119 4.58363,-3.77537 0,0 1.482906,1.21326 0,4.44871 0,0 8.897351,-9.97482 -0.134919,-12.13178 -0.846779,-0.20235 -1.639174,-0.29988 -2.379382,-0.30877 z m 3.884341,75.59029 c 0,0 -3.623392,23.44988 0.761558,30.69462 0,0 -5.338346,3.05055 -12.011102,-3.43156 -4.575603,-16.39593 11.249544,-27.26306 11.249544,-27.26306 z m 54.463822,0.33602 c 0,0 15.823851,10.86715 11.248251,27.26306 -6.672774,6.4821 -12.011109,3.43283 -12.011109,3.43283 4.384955,-7.24469 0.762858,-30.69589 0.762858,-30.69589 z m -43.43094,17.01899 c 0,0 -2.071369,13.4084 0.435919,17.55087 0,0 -3.052877,1.74478 -6.868308,-1.96161 -2.616295,-9.37509 6.432389,-15.58926 6.432389,-15.58926 z m 32.984473,0.19331 c 0,0 9.047384,6.21292 6.431091,15.58798 -3.815436,3.70642 -6.86701,1.96292 -6.86701,1.96292 2.507289,-4.14247 0.435919,-17.5509 0.435919,-17.5509 z"
       id="path4636" />
  </g>
</svg>
